<svg width="16" height="16" viewBox="0 0 16 16" fill="none" xmlns="http://www.w3.org/2000/svg">
<path d="M8 16C12.4183 16 16 12.4183 16 8C16 3.58172 12.4183 0 8 0C3.58172 0 0 3.58172 0 8C0 12.4183 3.58172 16 8 16Z" fill="#00B956"/>
<path d="M6.63722 9.68949C6.63722 10.0251 6.69123 10.3029 6.79925 10.5228C6.99987 10.9279 7.36445 11.1305 7.89301 11.1305C8.21708 11.1305 8.49967 11.0195 8.74081 10.7977C8.98193 10.5759 9.1025 10.2566 9.1025 9.83996C9.1025 9.28826 8.87873 8.91982 8.43119 8.73463C8.17656 8.63047 7.77533 8.57838 7.22749 8.57838V7.39783C7.76376 7.39011 8.13798 7.33802 8.35018 7.24158C8.71669 7.07953 8.89994 6.7516 8.89994 6.25777C8.89994 5.93756 8.80639 5.67715 8.61928 5.47653C8.43217 5.27591 8.16885 5.1756 7.82934 5.1756C7.43969 5.1756 7.15322 5.29905 6.96997 5.54597C6.78671 5.79288 6.69894 6.12275 6.70666 6.53555H5.16732C5.18275 6.11889 5.25411 5.72344 5.38143 5.3492C5.51645 5.02127 5.72865 4.71843 6.018 4.44065C6.23405 4.24389 6.49061 4.09342 6.78767 3.98926C7.08474 3.8851 7.44933 3.83301 7.88143 3.83301C8.6839 3.83301 9.33109 4.04037 9.82298 4.45511C10.3149 4.86984 10.5608 5.42638 10.5608 6.12467C10.5608 6.6185 10.4142 7.03518 10.121 7.37468C9.93583 7.58687 9.74293 7.73155 9.5423 7.80871C9.69277 7.80871 9.90883 7.93795 10.1905 8.19644C10.611 8.58609 10.8212 9.1185 10.8212 9.79365C10.8212 10.5035 10.5753 11.1276 10.0834 11.6658C9.59149 12.204 8.8633 12.4731 7.89878 12.4731C6.71052 12.4731 5.8849 12.0853 5.42193 11.3099C5.17889 10.897 5.04385 10.3569 5.01685 9.68949H6.63722Z" fill="white"/>
</svg>
