<svg width="123" height="38" viewBox="0 0 123 38" fill="none" xmlns="http://www.w3.org/2000/svg">
<rect x="0.5" y="0.5" width="122" height="37" rx="4.5" fill="black" stroke="#5C5C5C"/>
<path d="M10.0232 17.2455C10.0077 17.516 10 17.7864 10 18.0568C10 19.0787 10.15 20.1597 10.4507 21.302C10.8416 22.7591 11.4648 24.1416 12.3212 25.4487C13.6586 27.4917 14.9502 28.5214 16.1974 28.5361C16.6482 28.5361 17.2341 28.3784 17.9553 28.0629C18.6764 27.7474 19.3905 27.5896 20.0962 27.5896H20.1863C20.8772 27.5896 21.561 27.7403 22.2371 28.0403C22.9435 28.3713 23.5139 28.5361 23.9506 28.5361C24.6865 28.5214 25.3704 28.2136 26.0014 27.6122C26.6324 27.0107 27.2704 26.2297 27.9162 25.2684C28.3824 24.5479 28.8705 23.6388 29.3811 22.5415C28.6303 22.2563 27.9916 21.8281 27.4655 21.257C26.9394 20.6858 26.5789 20.0471 26.3838 19.3414C26.2338 18.816 26.1662 18.2899 26.1817 17.7639V17.223C26.2415 16.5018 26.4922 15.8145 26.9359 15.1609C27.3796 14.5074 27.9691 13.9778 28.7057 13.5721C28.1346 12.851 27.4655 12.2876 26.6993 11.8819C25.9331 11.4763 25.1591 11.2735 24.3781 11.2735C23.6576 11.2735 22.8646 11.4347 22.0005 11.758C21.1364 12.0812 20.4941 12.2425 20.0744 12.2425C19.6229 12.2425 18.944 12.0812 18.0348 11.758C17.1256 11.4347 16.3629 11.2735 15.7474 11.2735C14.8763 11.2735 14.0157 11.5249 13.167 12.0284C12.3177 12.532 11.6001 13.2264 11.0141 14.113C10.4585 14.9546 10.1282 15.9983 10.0232 17.2455ZM19.3757 11.4312C19.3307 11.2058 19.3074 10.9805 19.3074 10.7551C19.3074 9.77832 19.7053 8.80927 20.5018 7.84796C20.9075 7.35217 21.4293 6.93173 22.0688 6.58594C22.7069 6.24085 23.3266 6.04507 23.9273 6C23.9576 6.22536 23.9724 6.45072 23.9724 6.67608C23.9724 7.71275 23.597 8.70434 22.8456 9.65085C22.4245 10.1917 21.8991 10.6277 21.2681 10.958C20.6518 11.289 20.0504 11.446 19.4645 11.4312H19.3757Z" fill="white"/>
<path d="M45.9746 28H47.5586L43.7666 16.8H42.4706L38.6786 28H40.2626L40.7906 26.288H45.4466L45.9746 28ZM41.2066 24.96L43.1106 18.816L45.0306 24.96H41.2066ZM53.1241 20.432C51.9401 20.432 50.8841 21.008 50.4201 21.92V20.624H49.0281V31.408H50.4201V26.704C50.8841 27.616 51.9081 28.192 53.0441 28.192C55.1721 28.192 56.6921 26.576 56.6921 24.32C56.6921 22.016 55.2361 20.432 53.1241 20.432ZM52.8521 26.944C51.3801 26.944 50.3561 25.856 50.3561 24.32C50.3561 22.768 51.3801 21.68 52.8521 21.68C54.2761 21.68 55.3001 22.784 55.3001 24.32C55.3001 25.856 54.2761 26.944 52.8521 26.944ZM62.5773 20.432C61.3932 20.432 60.3373 21.008 59.8733 21.92V20.624H58.4813V31.408H59.8733V26.704C60.3373 27.616 61.3613 28.192 62.4973 28.192C64.6253 28.192 66.1453 26.576 66.1453 24.32C66.1453 22.016 64.6893 20.432 62.5773 20.432ZM62.3053 26.944C60.8333 26.944 59.8093 25.856 59.8093 24.32C59.8093 22.768 60.8333 21.68 62.3053 21.68C63.7293 21.68 64.7533 22.784 64.7533 24.32C64.7533 25.856 63.7293 26.944 62.3053 26.944ZM75.3893 28.256C77.6133 28.256 79.0533 26.992 79.0533 25.088C79.0533 23.568 78.3013 22.576 76.8453 22.064L75.1173 21.456C73.7413 20.992 73.1493 20.416 73.1493 19.472C73.1493 18.464 73.9013 17.792 75.1493 17.792C76.5733 17.792 77.3733 18.592 77.3733 19.968H78.8293C78.8293 17.888 77.4053 16.544 75.1973 16.544C73.1173 16.544 71.6773 17.76 71.6773 19.552C71.6773 21.04 72.4293 22.016 73.9333 22.496L75.7893 23.152C77.0853 23.6 77.5813 24.144 77.5813 25.12C77.5813 26.304 76.7813 26.976 75.3733 26.976C73.7893 26.976 72.7973 26 72.7973 24.432H71.3413C71.3413 26.832 72.8453 28.256 75.3893 28.256ZM83.6302 26.832C82.9263 26.832 82.4463 26.656 82.4463 25.248V21.792H84.3183V20.624H82.4463V18.288H81.0703V20.624H79.7263V21.792H81.0703V25.552C81.0703 27.936 82.4463 28.096 83.3263 28.096C83.7903 28.096 84.3023 28.048 84.5583 27.984V26.752C84.3503 26.8 83.9183 26.832 83.6302 26.832ZM89.2605 28.192C91.6445 28.192 93.1005 26.464 93.1005 24.304C93.1005 22.16 91.6445 20.432 89.2605 20.432C86.8605 20.432 85.4205 22.16 85.4205 24.304C85.4205 26.464 86.8605 28.192 89.2605 28.192ZM89.2605 26.944C87.7085 26.944 86.7965 25.792 86.7965 24.32C86.7965 22.832 87.7085 21.68 89.2605 21.68C90.8125 21.68 91.7085 22.832 91.7085 24.304C91.7085 25.792 90.8125 26.944 89.2605 26.944ZM94.9031 28H96.2951V24.768C96.2951 23.136 96.9831 21.808 98.4391 21.808C98.7111 21.808 98.8871 21.808 99.1271 21.856V20.576C98.9511 20.528 98.7111 20.512 98.4551 20.512C97.5431 20.512 96.5991 21.056 96.2951 22.304V20.624H94.9031V28ZM107.01 23.888C107.01 21.856 105.602 20.432 103.506 20.432C101.314 20.432 99.8736 21.952 99.8736 24.304C99.8736 26.688 101.298 28.192 103.57 28.192C105.298 28.192 106.658 27.248 106.914 25.888H105.522C105.218 26.576 104.546 26.976 103.57 26.976C102.162 26.976 101.282 26.144 101.25 24.72H106.962C106.994 24.368 107.01 24.208 107.01 23.888ZM101.25 23.664C101.298 22.416 102.194 21.52 103.522 21.52C104.834 21.52 105.634 22.368 105.634 23.664H101.25Z" fill="white"/>
<path d="M39.447 10.288H38.719C38.719 11.448 39.527 12.128 40.671 12.128C41.791 12.128 42.519 11.44 42.519 10.432C42.519 9.688 42.063 9.192 41.463 9.088C42.023 8.96 42.423 8.472 42.423 7.816C42.423 6.816 41.623 6.272 40.623 6.272C39.519 6.272 38.751 6.968 38.751 7.984H39.487C39.487 7.32 39.983 6.928 40.647 6.928C41.295 6.928 41.695 7.344 41.695 7.872C41.695 8.36 41.399 8.8 40.647 8.8H40.215V9.448H40.647C41.447 9.448 41.783 9.832 41.783 10.432C41.783 11 41.375 11.472 40.655 11.472C39.935 11.472 39.447 11.024 39.447 10.288ZM45.0186 12.096C45.5706 12.096 46.0986 11.808 46.3306 11.352V12H47.0186V8.312H46.3306V8.96C46.0986 8.504 45.6186 8.216 45.0346 8.216C43.8906 8.216 43.1946 9.072 43.1946 10.16C43.1946 11.248 43.8426 12.096 45.0186 12.096ZM45.1146 11.472C44.3546 11.472 43.8826 10.912 43.8826 10.16C43.8826 9.4 44.3546 8.84 45.1146 8.84C45.9226 8.84 46.3626 9.448 46.3626 10.16C46.3626 10.864 45.9226 11.472 45.1146 11.472ZM50.4412 8.312H48.2172V12H48.9132V8.96H50.4412V8.312ZM53.2652 8.216C52.6732 8.216 52.1452 8.504 51.9132 8.96V8.312H51.2172V13.704H51.9132V11.352C52.1452 11.808 52.6572 12.096 53.2252 12.096C54.2892 12.096 55.0492 11.288 55.0492 10.16C55.0492 9.008 54.3212 8.216 53.2652 8.216ZM53.1292 11.472C52.3932 11.472 51.8812 10.928 51.8812 10.16C51.8812 9.384 52.3932 8.84 53.1292 8.84C53.8412 8.84 54.3532 9.392 54.3532 10.16C54.3532 10.928 53.8412 11.472 53.1292 11.472ZM58.5758 8.312V10.208C58.5758 10.872 58.2398 11.472 57.5278 11.472C56.7998 11.472 56.5838 11.024 56.5838 10.368V8.312H55.8958V10.512C55.8958 11.448 56.3278 12.096 57.2958 12.096C57.9198 12.096 58.3598 11.784 58.5758 11.336V12.024C58.5758 12.864 58.1678 13.216 57.5438 13.216C56.8638 13.216 56.6238 12.912 56.5918 12.464H55.8958C55.9038 12.872 56.0478 13.192 56.3038 13.416C56.5998 13.664 57.0238 13.8 57.5598 13.8C58.0638 13.8 58.4718 13.656 58.7678 13.4C59.0878 13.104 59.2638 12.656 59.2638 12.072V8.312H58.5758ZM60.9312 10.904H60.2352C60.2352 11.616 60.8192 12.096 61.7792 12.096C62.6272 12.096 63.3232 11.704 63.3232 11.016C63.3232 10.48 62.9472 10.152 62.4432 10.104C62.9232 10.032 63.2432 9.728 63.2432 9.232C63.2432 8.64 62.6752 8.216 61.8032 8.216C60.8992 8.216 60.3072 8.688 60.3072 9.376H61.0032C61.0032 9.032 61.2592 8.776 61.8112 8.776C62.2752 8.776 62.5632 9.016 62.5632 9.328C62.5632 9.672 62.2912 9.88 61.9152 9.88H61.3952V10.4H61.9472C62.3952 10.4 62.6432 10.632 62.6432 10.936C62.6432 11.312 62.3552 11.52 61.8272 11.52C61.2512 11.52 60.9312 11.272 60.9312 10.904ZM66.8795 9.424V12H67.5755V8.312H66.8795V8.624L64.9835 10.92V8.312H64.2875V12H64.9835V11.704L66.8795 9.424ZM71.3799 8.312H68.4199V8.96H69.5479V12H70.2439V8.96H71.3799V8.312ZM75.3798 9.944C75.3798 8.928 74.6758 8.216 73.6278 8.216C72.5318 8.216 71.8118 8.976 71.8118 10.152C71.8118 11.344 72.5238 12.096 73.6598 12.096C74.5238 12.096 75.2038 11.624 75.3318 10.944H74.6358C74.4838 11.288 74.1478 11.488 73.6598 11.488C72.9558 11.488 72.5158 11.072 72.4998 10.36H75.3558C75.3718 10.184 75.3798 10.104 75.3798 9.944ZM72.4998 9.832C72.5238 9.208 72.9718 8.76 73.6358 8.76C74.2918 8.76 74.6918 9.184 74.6918 9.832H72.4998ZM78.3031 8.312V12H79.9991C80.9751 12 81.2551 11.4 81.2551 10.992C81.2551 10.464 80.8471 10.112 80.3671 10.096C80.8311 10.048 81.1911 9.696 81.1911 9.272C81.1911 8.864 80.9671 8.312 80.0391 8.312H78.3031ZM79.9911 9.872H78.9831V8.808H79.9831C80.2871 8.808 80.4951 9.048 80.4951 9.344C80.4951 9.624 80.2871 9.872 79.9911 9.872ZM78.9831 10.368H80.0151C80.3191 10.368 80.5591 10.64 80.5591 10.944C80.5591 11.248 80.3191 11.504 80.0151 11.504H78.9831V10.368Z" fill="white"/>
</svg>
