<svg width="123" height="38" viewBox="0 0 123 38" fill="none" xmlns="http://www.w3.org/2000/svg">
<rect x="0.5" y="0.5" width="122" height="37" rx="4.5" fill="black" stroke="#5C5C5C"/>
<path d="M25.5819 21.8145C28.0887 20.438 29.9891 19.3892 30.1529 19.3077C30.6769 19.029 31.218 18.2915 30.1529 17.7186C29.809 17.5385 27.9575 16.5223 25.5819 15.2119L22.2888 18.5376L25.5819 21.8145Z" fill="#FFD900"/>
<path d="M22.2886 18.5371L11.803 29.1051C12.0491 29.1377 12.327 29.0725 12.6546 28.8924C13.3424 28.5159 20.6335 24.5342 25.5818 21.8147L22.2886 18.5371Z" fill="#F43249"/>
<path d="M22.2883 18.5371L25.5815 15.2277C25.5815 15.2277 13.3918 8.57547 12.6543 8.18268C12.3764 8.01806 12.0651 7.96917 11.7864 8.01806L22.2883 18.5371Z" fill="#00EE76"/>
<path d="M22.2884 18.5376L11.7864 8.01855C11.3602 8.11716 11 8.49366 11 9.26376V27.8604C11 28.5653 11.2787 29.073 11.8027 29.1219L22.2884 18.5376Z" fill="#00D3FF"/>
<path d="M47.4425 23.24H42.6545V24.388H45.0345C44.6845 26.11 43.5505 27.076 41.7025 27.076C39.3785 27.076 38.0065 25.326 38.0065 23.156C38.0065 20.93 39.2525 19.124 41.7725 19.124C43.2845 19.124 44.3065 19.922 44.5865 21H45.9865C45.7345 19.278 44.0685 17.976 41.7725 17.976C38.4405 17.976 36.6765 20.37 36.6765 23.156C36.6625 25.998 38.5665 28.224 41.7025 28.224C44.3345 28.224 45.9445 26.698 46.3645 24.388H47.4425V23.24ZM51.849 28.168C53.935 28.168 55.209 26.656 55.209 24.766C55.209 22.89 53.935 21.378 51.849 21.378C49.749 21.378 48.489 22.89 48.489 24.766C48.489 26.656 49.749 28.168 51.849 28.168ZM51.849 27.076C50.491 27.076 49.693 26.068 49.693 24.78C49.693 23.478 50.491 22.47 51.849 22.47C53.207 22.47 53.991 23.478 53.991 24.766C53.991 26.068 53.207 27.076 51.849 27.076ZM59.7104 28.168C61.7964 28.168 63.0704 26.656 63.0704 24.766C63.0704 22.89 61.7964 21.378 59.7104 21.378C57.6104 21.378 56.3504 22.89 56.3504 24.766C56.3504 26.656 57.6104 28.168 59.7104 28.168ZM59.7104 27.076C58.3524 27.076 57.5544 26.068 57.5544 24.78C57.5544 23.478 58.3524 22.47 59.7104 22.47C61.0684 22.47 61.8524 23.478 61.8524 24.766C61.8524 26.068 61.0684 27.076 59.7104 27.076ZM69.727 21.546V22.68C69.321 21.868 68.453 21.378 67.459 21.378C65.541 21.378 64.239 22.862 64.239 24.78C64.239 26.684 65.457 28.168 67.431 28.168C68.369 28.168 69.321 27.678 69.727 26.866V27.888C69.727 29.4 68.971 30.072 67.585 30.072C66.381 30.072 65.709 29.512 65.625 28.644H64.351C64.365 29.358 64.729 30.002 65.331 30.45C65.905 30.884 66.689 31.15 67.585 31.15C68.579 31.15 69.363 30.898 69.909 30.422C70.581 29.862 70.931 28.966 70.931 27.804V21.546H69.727ZM67.599 27.076C66.325 27.076 65.443 26.096 65.443 24.78C65.443 23.45 66.325 22.47 67.599 22.47C68.957 22.47 69.783 23.506 69.783 24.78C69.783 26.04 68.957 27.076 67.599 27.076ZM73.1105 28H74.3285V18.2H73.1105V28ZM82.1588 24.402C82.1588 22.624 80.9268 21.378 79.0928 21.378C77.1748 21.378 75.9148 22.708 75.9148 24.766C75.9148 26.852 77.1608 28.168 79.1488 28.168C80.6608 28.168 81.8508 27.342 82.0748 26.152H80.8568C80.5908 26.754 80.0028 27.104 79.1488 27.104C77.9168 27.104 77.1468 26.376 77.1188 25.13H82.1168C82.1448 24.822 82.1588 24.682 82.1588 24.402ZM77.1188 24.206C77.1608 23.114 77.9448 22.33 79.1068 22.33C80.2548 22.33 80.9548 23.072 80.9548 24.206H77.1188ZM90.8586 18.2H87.3446V28H88.6186V24.962H90.8586C92.7766 24.962 94.1486 23.548 94.1486 21.588C94.1486 19.614 92.7766 18.2 90.8586 18.2ZM90.7886 23.814H88.6186V19.348H90.7886C91.9926 19.348 92.8746 20.286 92.8746 21.588C92.8746 22.876 91.9926 23.814 90.7886 23.814ZM95.3957 28H96.6137V18.2H95.3957V28ZM101.392 28.168C102.358 28.168 103.282 27.664 103.688 26.866V28H104.892V21.546H103.688V22.68C103.282 21.882 102.442 21.378 101.42 21.378C99.418 21.378 98.2 22.876 98.2 24.78C98.2 26.684 99.334 28.168 101.392 28.168ZM101.56 27.076C100.23 27.076 99.404 26.096 99.404 24.78C99.404 23.45 100.23 22.47 101.56 22.47C102.974 22.47 103.744 23.534 103.744 24.78C103.744 26.012 102.974 27.076 101.56 27.076ZM111.595 21.546V24.864C111.595 26.026 111.007 27.076 109.761 27.076C108.487 27.076 108.109 26.292 108.109 25.144V21.546H106.905V25.396C106.905 27.034 107.661 28.168 109.355 28.168C110.447 28.168 111.217 27.622 111.595 26.838V28.042C111.595 29.512 110.881 30.128 109.789 30.128C108.599 30.128 108.179 29.596 108.123 28.812H106.905C106.919 29.526 107.171 30.086 107.619 30.478C108.137 30.912 108.879 31.15 109.817 31.15C110.699 31.15 111.413 30.898 111.931 30.45C112.491 29.932 112.799 29.148 112.799 28.126V21.546H111.595Z" fill="white"/>
<path d="M40.5338 13.344V8.4H37.1338V11.888C37.1338 13.016 36.9098 13.344 36.5258 13.344H36.2618V14.96H36.9898V14H40.1978V14.96H40.8938V13.344H40.5338ZM37.5498 13.344C37.7498 13.008 37.8778 12.528 37.8778 11.872V9.056H39.7978V13.344H37.5498ZM44.4186 14.128C46.2266 14.128 47.3066 12.776 47.3066 11.2C47.3066 9.624 46.2266 8.272 44.4186 8.272C42.6106 8.272 41.5306 9.624 41.5306 11.2C41.5306 12.776 42.6106 14.128 44.4186 14.128ZM44.4186 13.472C43.0666 13.472 42.2906 12.424 42.2906 11.2C42.2906 9.976 43.0666 8.928 44.4186 8.928C45.7706 8.928 46.5466 9.976 46.5386 11.2C46.5466 12.424 45.7706 13.472 44.4186 13.472ZM50.8176 14.128C52.2976 14.128 53.2656 13.304 53.4816 12.184H52.6816C52.4576 12.968 51.8176 13.472 50.8176 13.472C49.4576 13.472 48.6656 12.528 48.6656 11.2C48.6656 9.88 49.4496 8.928 50.7936 8.928C51.8576 8.928 52.4816 9.464 52.6816 10.272H53.4816C53.2816 9.12 52.3376 8.272 50.7856 8.272C48.9856 8.272 47.9056 9.536 47.9056 11.2C47.9056 12.872 48.9936 14.128 50.8176 14.128ZM55.095 14H55.823V9.088H57.495V8.4H53.423V9.088H55.095V14ZM61.5094 8.4L60.1814 11.024L58.5414 8.4H57.6934L59.8134 11.776L58.6854 14H59.4934L62.3094 8.4H61.5094ZM63.5555 9.056H66.1395V14H66.8675V8.4H62.8275V14H63.5555V9.056ZM68.1478 14H68.8758V11.544H71.4838V14H72.2118V8.4H71.4838V10.888H68.8758V8.4H68.1478V14ZM76.0436 14.128C77.8516 14.128 78.9316 12.776 78.9316 11.2C78.9316 9.624 77.8516 8.272 76.0436 8.272C74.2356 8.272 73.1556 9.624 73.1556 11.2C73.1556 12.776 74.2356 14.128 76.0436 14.128ZM76.0436 13.472C74.6916 13.472 73.9156 12.424 73.9156 11.2C73.9156 9.976 74.6916 8.928 76.0436 8.928C77.3956 8.928 78.1716 9.976 78.1636 11.2C78.1716 12.424 77.3956 13.472 76.0436 13.472ZM84.418 11.136C85.058 11.016 85.474 10.608 85.474 9.848C85.474 8.944 84.81 8.4 83.73 8.4H81.89V14H83.81C84.882 14 85.546 13.416 85.546 12.472C85.546 11.688 85.026 11.208 84.418 11.136ZM83.706 9.048C84.354 9.048 84.746 9.368 84.746 9.944C84.746 10.496 84.354 10.84 83.754 10.84H82.618V9.048H83.706ZM83.802 13.352H82.618V11.48H83.858C84.418 11.48 84.818 11.848 84.818 12.4C84.818 13 84.426 13.352 83.802 13.352Z" fill="white"/>
</svg>
