<svg width="44" height="44" viewBox="0 0 44 44" fill="none" xmlns="http://www.w3.org/2000/svg">
<path d="M44 22C44 9.84973 34.1503 0 22 0C9.84973 0 0 9.84973 0 22C0 34.1503 9.84973 44 22 44C34.1503 44 44 34.1503 44 22Z" fill="#787575"/>
<path d="M18.3388 22.0567C18.3388 20.0299 19.9809 18.3865 22.0071 18.3865C24.0333 18.3865 25.6762 20.0299 25.6762 22.0567C25.6762 24.0834 24.0333 25.7269 22.0071 25.7269C19.9809 25.7269 18.3388 24.0834 18.3388 22.0567ZM16.3553 22.0567C16.3553 25.179 18.8856 27.71 22.0071 27.71C25.1286 27.71 27.6588 25.179 27.6588 22.0567C27.6588 18.9343 25.1286 16.4033 22.0071 16.4033C18.8856 16.4033 16.3553 18.9343 16.3553 22.0567ZM26.5618 16.1791C26.5617 16.4404 26.6391 16.6959 26.7841 16.9132C26.9292 17.1305 27.1354 17.2999 27.3767 17.4C27.6179 17.5001 27.8835 17.5264 28.1398 17.4755C28.396 17.4246 28.6314 17.2989 28.8162 17.1142C29.001 16.9295 29.1268 16.6942 29.1779 16.4379C29.229 16.1816 29.2029 15.916 29.103 15.6745C29.0032 15.4331 28.834 15.2267 28.6168 15.0814C28.3997 14.9362 28.1443 14.8585 27.8831 14.8585H27.8826C27.5325 14.8586 27.1966 14.9978 26.949 15.2454C26.7014 15.493 26.5621 15.8289 26.5618 16.1791ZM17.5604 31.0183C16.4874 30.9695 15.9041 30.7906 15.5165 30.6396C15.0026 30.4395 14.6359 30.2012 14.2504 29.8161C13.8649 29.431 13.6263 29.0646 13.4272 28.5506C13.276 28.163 13.0973 27.5794 13.0485 26.506C12.9952 25.3455 12.9845 24.9969 12.9845 22.0567C12.9845 19.1166 12.996 18.769 13.0485 17.6075C13.0974 16.5341 13.2775 15.9516 13.4272 15.5629C13.6272 15.0489 13.8655 14.6821 14.2504 14.2965C14.6354 13.9109 15.0017 13.6722 15.5165 13.473C15.9039 13.3218 16.4874 13.143 17.5604 13.0943C18.7206 13.0409 19.0691 13.0302 22.0071 13.0302C24.9451 13.0302 25.294 13.0418 26.4551 13.0943C27.5282 13.1431 28.1105 13.3232 28.499 13.473C29.0129 13.6722 29.3796 13.9114 29.7651 14.2965C30.1506 14.6816 30.3883 15.0489 30.5884 15.5629C30.7395 15.9505 30.9182 16.5341 30.967 17.6075C31.0204 18.769 31.031 19.1166 31.031 22.0567C31.031 24.9969 31.0204 25.3445 30.967 26.506C30.9181 27.5794 30.7385 28.1629 30.5884 28.5506C30.3883 29.0646 30.1501 29.4314 29.7651 29.8161C29.3801 30.2008 29.0129 30.4395 28.499 30.6396C28.1116 30.7907 27.5282 30.9696 26.4551 31.0183C25.2949 31.0717 24.9464 31.0824 22.0071 31.0824C19.0678 31.0824 18.7203 31.0717 17.5604 31.0183ZM17.4693 11.1136C16.2976 11.1669 15.4969 11.3528 14.7977 11.6249C14.0736 11.906 13.4605 12.283 12.8479 12.8948C12.2354 13.5066 11.8594 14.1208 11.5784 14.8451C11.3063 15.545 11.1205 16.3455 11.0671 17.5175C11.0129 18.6915 11.0005 19.0668 11.0005 22.0567C11.0005 25.0465 11.0129 25.4218 11.0671 26.5958C11.1205 27.7679 11.3063 28.5683 11.5784 29.2682C11.8594 29.9921 12.2355 30.6069 12.8479 31.2185C13.4604 31.83 14.0736 32.2065 14.7977 32.4884C15.4982 32.7606 16.2976 32.9464 17.4693 32.9998C18.6435 33.0531 19.0181 33.0664 22.0071 33.0664C24.9962 33.0664 25.3713 33.054 26.5449 32.9998C27.7167 32.9464 28.5169 32.7606 29.2165 32.4884C29.9402 32.2065 30.5537 31.8303 31.1663 31.2185C31.7788 30.6067 32.154 29.9921 32.4358 29.2682C32.7079 28.5683 32.8946 27.7678 32.9471 26.5958C33.0004 25.421 33.0128 25.0465 33.0128 22.0567C33.0128 19.0668 33.0004 18.6915 32.9471 17.5175C32.8937 16.3454 32.7079 15.5446 32.4358 14.8451C32.154 14.1212 31.7779 13.5076 31.1663 12.8948C30.5546 12.2821 29.9402 11.906 29.2174 11.6249C28.5169 11.3528 27.7166 11.1661 26.5458 11.1136C25.3722 11.0602 24.997 11.0469 22.008 11.0469C19.0189 11.0469 18.6435 11.0593 17.4693 11.1136Z" fill="white"/>
</svg>
