<svg width="44" height="44" viewBox="0 0 44 44" fill="none" xmlns="http://www.w3.org/2000/svg">
<path d="M44 22C44 9.84974 34.1503 0 22 0C9.84974 0 0 9.84974 0 22C0 34.1503 9.84974 44 22 44C34.1503 44 44 34.1503 44 22Z" fill="#787575"/>
<path fill-rule="evenodd" clip-rule="evenodd" d="M34.838 15.6644C35.024 15.0827 34.838 14.6553 33.953 14.6553H31.0267C30.2826 14.6553 29.9396 15.0245 29.7536 15.4316C29.7536 15.4316 28.2654 18.8343 26.1573 21.0445C25.4752 21.6843 25.1652 21.8879 24.7932 21.8879C24.6071 21.8879 24.3379 21.6843 24.3379 21.1027V15.6644C24.3379 14.9663 24.122 14.6553 23.5018 14.6553H18.9033C18.4383 14.6553 18.1587 14.9792 18.1587 15.2862C18.1587 15.9479 19.2127 16.1005 19.3214 17.9618V22.0043C19.3214 22.8906 19.1507 23.0513 18.7787 23.0513C17.7866 23.0513 15.3735 19.6334 13.9423 15.7225C13.6618 14.9623 13.3805 14.6553 12.6326 14.6553H9.70624C8.87012 14.6553 8.70288 15.0245 8.70288 15.4316C8.70288 16.1587 9.695 19.7649 13.3223 24.5344C15.7404 27.7916 19.1474 29.5572 22.2477 29.5572C24.1078 29.5572 24.3379 29.1651 24.3379 28.4896V26.0278C24.3379 25.2435 24.5141 25.087 25.1032 25.087C25.5372 25.087 26.2813 25.2906 28.0175 26.861C30.0016 28.7222 30.3287 29.5572 31.4448 29.5572H34.3711C35.2072 29.5572 35.6252 29.1651 35.3841 28.3912C35.1202 27.6199 34.1729 26.5008 32.9159 25.1742C32.2337 24.4181 31.2107 23.6038 30.9006 23.1966C30.4666 22.6732 30.5906 22.4405 30.9006 21.9752C30.9006 21.9752 34.466 17.2638 34.838 15.6644Z" fill="white"/>
</svg>
