<svg width="19" height="20" viewBox="0 0 19 20" fill="none" xmlns="http://www.w3.org/2000/svg">
<path d="M3.34206 12.6102C3.45941 11.6387 3.85786 11.0947 4.60872 10.5372C5.68311 9.78196 7.02511 10.2091 7.02511 10.2091V7.67491C7.35143 7.6665 7.67783 7.68588 8.00047 7.73265V10.994C8.00047 10.994 6.65884 10.5668 5.58452 11.3224C4.83405 11.8796 4.43477 12.424 4.31783 13.3955C4.31417 13.9231 4.41317 14.6126 4.86911 15.2089C4.75633 15.1511 4.64145 15.0852 4.5244 15.0113C3.52011 14.3369 3.33718 13.3252 3.34206 12.6102ZM13.5418 2.98905C12.8028 2.17919 12.5232 1.36151 12.4222 0.787109H13.3519C13.3519 0.787109 13.1666 2.29321 14.5176 3.77432L14.5363 3.79424C14.1722 3.5652 13.8383 3.29484 13.5418 2.98905ZM18.0205 5.2851V8.4808C18.0205 8.4808 16.8342 8.4344 15.9562 8.21102C14.7302 7.89859 13.9423 7.41947 13.9423 7.41947C13.9423 7.41947 13.398 7.07784 13.354 7.05403V13.6532C13.354 14.0207 13.2534 14.9383 12.9466 15.7036C12.5461 16.7049 11.928 17.362 11.8143 17.4964C11.8143 17.4964 11.0627 18.3847 9.73651 18.983C8.54116 19.5226 7.49161 19.509 7.17791 19.5226C7.17791 19.5226 5.3637 19.5945 3.73116 18.5335C3.37813 18.2996 3.0486 18.0348 2.74683 17.7423L2.75498 17.7482C4.38791 18.8092 6.20172 18.7373 6.20172 18.7373C6.51588 18.7236 7.56535 18.7373 8.76033 18.1977C10.0853 17.5995 10.8382 16.7111 10.8382 16.7111C10.9506 16.5768 11.5715 15.9196 11.9704 14.918C12.2763 14.153 12.3778 13.235 12.3778 12.8676V6.26917C12.4218 6.29334 12.9657 6.63498 12.9657 6.63498C12.9657 6.63498 13.7541 7.11455 14.98 7.42653C15.8584 7.64991 17.0444 7.69639 17.0444 7.69639V5.19217C17.4502 5.28315 17.7961 5.30778 18.0205 5.2851Z" fill="url(#paint0_linear_571_13196)"/>
<path d="M17.0449 5.19217V7.69556C17.0449 7.69556 15.8589 7.64908 14.9805 7.42578C13.7546 7.11335 12.9662 6.63423 12.9662 6.63423C12.9662 6.63423 12.4223 6.29259 12.3783 6.26834V12.8683C12.3783 13.2358 12.2777 14.1538 11.9709 14.9188C11.5704 15.9204 10.9523 16.5775 10.8387 16.7119C10.8387 16.7119 10.0866 17.6002 8.76082 18.1985C7.56583 18.7381 6.51637 18.7245 6.20221 18.7381C6.20221 18.7381 4.3884 18.81 2.75546 17.749L2.74731 17.7432C2.57491 17.5762 2.41263 17.4 2.26126 17.2152C1.74017 16.5799 1.42076 15.8286 1.34049 15.6142C1.34036 15.6133 1.34036 15.6124 1.34049 15.6115C1.21135 15.239 0.940004 14.3444 0.977081 13.4779C1.04268 11.9491 1.58047 11.0108 1.72265 10.7757C2.09923 10.1347 2.58902 9.56113 3.17022 9.08066C3.68309 8.66596 4.26441 8.33604 4.89032 8.1044C5.56699 7.83244 6.29156 7.68663 7.02522 7.67491V10.2091C7.02522 10.2091 5.68315 9.78353 4.6092 10.5372C3.85834 11.0947 3.45989 11.6387 3.34255 12.6102C3.33766 13.3252 3.52059 14.3369 4.52406 15.0117C4.64111 15.0859 4.75599 15.1518 4.86877 15.2093C5.04402 15.4372 5.25741 15.6358 5.50024 15.797C6.48048 16.4175 7.30183 16.4608 8.3522 16.0578C9.05252 15.7884 9.5797 15.1812 9.82417 14.5083C9.9778 14.0882 9.97577 13.6653 9.97577 13.228V0.787109H12.4202C12.5213 1.36151 12.8008 2.17919 13.5398 2.98905C13.8363 3.29484 14.1703 3.5652 14.5343 3.79424C14.6419 3.90552 15.1919 4.45572 15.898 4.79349C16.263 4.96808 16.6479 5.10185 17.0449 5.19217Z" fill="#00B956"/>
<path d="M0.367432 14.834V14.8359L0.428086 15.0004C0.421118 14.9812 0.398577 14.923 0.367432 14.834Z" fill="#69C9D0"/>
<path d="M4.89015 8.10362C4.26424 8.33533 3.68292 8.66526 3.17004 9.07988C2.58866 9.56147 2.099 10.1363 1.72289 10.7785C1.5807 11.0128 1.04291 11.9519 0.977319 13.4806C0.940242 14.3471 1.21159 15.2417 1.34073 15.6142C1.3406 15.6151 1.3406 15.616 1.34073 15.6169C1.42221 15.8294 1.74041 16.5807 2.2615 17.218C2.41287 17.4027 2.57515 17.579 2.74755 17.7459C2.19517 17.3797 1.70253 16.9371 1.28573 16.4323C0.769123 15.8025 0.450521 15.059 0.367409 14.8395C0.367311 14.8379 0.367311 14.8364 0.367409 14.8349V14.8321C0.237849 14.46 -0.0343047 13.5649 0.00358337 12.6973C0.0691779 11.1686 0.606976 10.2303 0.749165 9.99517C1.12515 9.35281 1.61484 8.77803 2.19631 8.29659C2.70908 7.88174 3.29043 7.55182 3.91643 7.32033C4.30691 7.16505 4.7137 7.05055 5.12975 6.97869C5.75671 6.8738 6.39712 6.86464 7.02708 6.95173V7.67413C6.29275 7.68562 5.56742 7.83143 4.89015 8.10362Z" fill="#69C9D0"/>
<path d="M12.422 0.785655H9.97747V13.2269C9.97747 13.6642 9.97747 14.086 9.82595 14.5073C9.57907 15.1798 9.05385 15.7869 8.3539 16.0564C7.30324 16.4609 6.48188 16.416 5.50202 15.7955C5.25874 15.635 5.04482 15.4371 4.8689 15.2098C5.70369 15.6366 6.45087 15.6291 7.37652 15.2731C8.07609 15.0036 8.60206 14.3964 8.84812 13.7236C9.00212 13.3035 9.00009 12.8806 9.00009 12.4436V0H12.3755C12.3755 0 12.3377 0.309261 12.422 0.785655ZM17.0446 4.49839V5.19072C16.6483 5.10026 16.2642 4.96649 15.8997 4.79204C15.1937 4.45427 14.6436 3.90407 14.5361 3.79278C14.6609 3.87132 14.7904 3.94277 14.9239 4.00677C15.7824 4.41756 16.6278 4.54017 17.0446 4.49839Z" fill="#69C9D0"/>
<defs>
<linearGradient id="paint0_linear_571_13196" x1="10.3837" y1="0.787109" x2="10.3837" y2="19.5236" gradientUnits="userSpaceOnUse">
<stop stop-color="#731982" stop-opacity="0.8"/>
<stop offset="1" stop-color="#00B956"/>
</linearGradient>
</defs>
</svg>
