<svg width="16" height="17" viewBox="0 0 16 17" fill="none" xmlns="http://www.w3.org/2000/svg">
<path d="M7.66342 9.24825C8.08564 9.24825 8.42792 8.90958 8.42792 8.4918C8.42792 8.07403 8.08564 7.73535 7.66342 7.73535C7.2412 7.73535 6.89893 8.07403 6.89893 8.4918C6.89893 8.90958 7.2412 9.24825 7.66342 9.24825Z" fill="#00B956"/>
<path d="M10.7213 9.24825C11.1435 9.24825 11.4858 8.90958 11.4858 8.4918C11.4858 8.07403 11.1435 7.73535 10.7213 7.73535C10.2991 7.73535 9.95679 8.07403 9.95679 8.4918C9.95679 8.90958 10.2991 9.24825 10.7213 9.24825Z" fill="#731982"/>
<path d="M4.60532 9.24825C5.02754 9.24825 5.36981 8.90958 5.36981 8.4918C5.36981 8.07403 5.02754 7.73535 4.60532 7.73535C4.1831 7.73535 3.84082 8.07403 3.84082 8.4918C3.84082 8.90958 4.1831 9.24825 4.60532 9.24825Z" fill="#00B956"/>
<path d="M13.0683 3.14319C11.814 1.89392 10.1584 1.11682 8.38704 0.945888C6.61568 0.774953 4.83956 1.22089 3.36488 2.20681C1.89019 3.19273 0.809357 4.65685 0.30871 6.34676C-0.191937 8.03667 -0.0810219 9.84647 0.622334 11.4641C0.695642 11.6145 0.719695 11.7837 0.691139 11.9483L0.0183815 15.148C-0.00753783 15.2707 -0.00224505 15.3978 0.0337843 15.518C0.0698136 15.6382 0.13545 15.7476 0.224796 15.8364C0.298038 15.9084 0.385244 15.9649 0.481157 16.0026C0.577071 16.0403 0.679707 16.0584 0.782878 16.0558H0.935777L4.20782 15.4052C4.37412 15.3854 4.54276 15.4089 4.6971 15.4733C6.33198 16.1693 8.16102 16.279 9.86891 15.7836C11.5768 15.2883 13.0565 14.2188 14.0529 12.7596C15.0493 11.3005 15.5 9.54305 15.3272 7.79034C15.1545 6.03764 14.3691 4.39949 13.1066 3.15832L13.0683 3.14319ZM13.7029 9.46711C13.5534 10.3703 13.1988 11.2282 12.6659 11.9762C12.1329 12.7242 11.4354 13.3428 10.6259 13.7856C9.81636 14.2283 8.9159 14.4836 7.99225 14.5322C7.0686 14.5808 6.14584 14.4216 5.29341 14.0663C4.99108 13.9391 4.66632 13.8722 4.33779 13.8696C4.19428 13.8706 4.05109 13.8833 3.90967 13.9075L1.75379 14.3386L2.18955 12.2055C2.27634 11.7435 2.22039 11.2663 2.02901 10.8363C1.66999 9.99282 1.509 9.07977 1.55815 8.16585C1.60729 7.25192 1.8653 6.36094 2.31275 5.55993C2.76019 4.75893 3.38542 4.06878 4.14139 3.54142C4.89735 3.01407 5.76435 2.66324 6.67715 2.51534C7.63527 2.35975 8.61706 2.43211 9.54132 2.72643C10.4656 3.02076 11.3057 3.52859 11.9923 4.20792C12.6788 4.88725 13.1921 5.71856 13.4895 6.63309C13.787 7.54761 13.8601 8.51907 13.7029 9.46711Z" fill="#00B956"/>
</svg>
