<svg width="44" height="44" viewBox="0 0 44 44" fill="none" xmlns="http://www.w3.org/2000/svg">
<path d="M22 44C34.1503 44 44 34.1503 44 22C44 9.84974 34.1503 0 22 0C9.84974 0 0 9.84974 0 22C0 34.1503 9.84974 44 22 44Z" fill="#787575"/>
<path d="M23.7101 32.9996V22.9793H27.0875L27.5945 19.0562H23.7101V16.5598C23.7101 15.4254 24.0238 14.6562 25.648 14.6562H27.7062V11.1586C27.3496 11.1113 26.1207 11.0039 24.6898 11.0039C21.7035 11.0039 19.6582 12.8258 19.6582 16.173V19.0605H16.2937V22.9836H19.6582V32.9996H23.7101Z" fill="white"/>
</svg>
