<svg width="20" height="22" viewBox="0 0 20 22" fill="none" xmlns="http://www.w3.org/2000/svg">
<path d="M0.666992 12.9689C0.666992 9.90747 4.66842 8.85091 4.66842 10.3439V15.5939C4.66842 17.0901 0.666992 16.0237 0.666992 12.9689Z" fill="#999999"/>
<path d="M15.3389 16.25H16.0058C16.8901 16.25 17.7383 15.9043 18.3636 15.2889C18.989 14.6736 19.3403 13.839 19.3403 12.9687C19.3403 12.0985 18.989 11.2639 18.3636 10.6486C17.7383 10.0332 16.8901 9.6875 16.0058 9.6875H15.3389V16.25Z" fill="#999999"/>
<path d="M12.0042 20.8437C12.7409 20.8437 13.338 20.2561 13.338 19.5312C13.338 18.8064 12.7409 18.2188 12.0042 18.2188C11.2676 18.2188 10.6704 18.8064 10.6704 19.5312C10.6704 20.2561 11.2676 20.8437 12.0042 20.8437Z" fill="#999999"/>
<path d="M18.6734 10.0419V9.03125C18.6734 6.76862 17.7599 4.59866 16.134 2.99875C14.5081 1.39883 12.303 0.5 10.0036 0.5C7.70422 0.5 5.49903 1.39883 3.87313 2.99875C2.24724 4.59866 1.33382 6.76862 1.33382 9.03125V10.0484C0.913725 10.4143 0.577535 10.8639 0.34757 11.3674C0.117605 11.8709 -0.000872377 12.4167 4.83578e-06 12.9687C4.83578e-06 16.0105 3.43457 17.6183 4.81506 16.6273C4.98057 16.5096 5.11443 16.3539 5.20507 16.1739C5.2957 15.9938 5.34039 15.7947 5.33525 15.5937V10.3437C5.33525 9.32656 4.27153 8.64078 2.66763 9.24125C2.66763 4.80828 6.1322 1.8125 10.0036 1.8125C13.8049 1.8125 17.3395 4.72953 17.3395 9.26094C16.6944 9.05583 16.0146 8.97778 15.3388 9.03125C15.162 9.03125 14.9923 9.10039 14.8673 9.22346C14.7422 9.34653 14.6719 9.51345 14.6719 9.6875V16.25C14.6719 16.424 14.7422 16.591 14.8673 16.714C14.9923 16.8371 15.162 16.9062 15.3388 16.9062C16.0146 16.9602 16.6946 16.8822 17.3395 16.6766V16.9062C17.3395 17.4284 17.1288 17.9292 16.7535 18.2984C16.3783 18.6676 15.8695 18.875 15.3388 18.875H13.8883C13.731 18.4371 13.4214 18.0681 13.0143 17.8331C12.6073 17.5981 12.1289 17.5123 11.6637 17.5909C11.1985 17.6694 10.7766 17.9072 10.4724 18.2623C10.1681 18.6174 10.0013 19.0668 10.0013 19.5312C10.0013 19.9957 10.1681 20.4451 10.4724 20.8002C10.7766 21.1553 11.1985 21.3931 11.6637 21.4716C12.1289 21.5502 12.6073 21.4644 13.0143 21.2294C13.4214 20.9944 13.731 20.6254 13.8883 20.1875H15.3388C16.2232 20.1875 17.0714 19.8418 17.6967 19.2264C18.322 18.6111 18.6734 17.7765 18.6734 16.9062C18.6912 16.5707 18.6912 16.2345 18.6734 15.8989C19.0909 15.5297 19.4248 15.0781 19.6533 14.5735C19.8819 14.069 20 13.5228 20 12.9704C20 12.418 19.8819 11.8718 19.6533 11.3672C19.4248 10.8627 19.0909 10.4111 18.6734 10.0419ZM4.00144 10.3437V15.5937C3.36788 15.83 1.33382 14.8981 1.33382 12.9687C1.33382 11.0394 3.40122 10.1272 4.00144 10.3437ZM12.0043 20.1875C11.8724 20.1875 11.7435 20.149 11.6338 20.0769C11.5241 20.0048 11.4386 19.9023 11.3882 19.7824C11.3377 19.6625 11.3245 19.5305 11.3502 19.4032C11.3759 19.2759 11.4395 19.159 11.5327 19.0672C11.626 18.9754 11.7448 18.9129 11.8742 18.8876C12.0036 18.8623 12.1377 18.8753 12.2595 18.925C12.3814 18.9746 12.4855 19.0587 12.5588 19.1667C12.6321 19.2746 12.6712 19.4015 12.6712 19.5312C12.6712 19.7053 12.6009 19.8722 12.4759 19.9953C12.3508 20.1184 12.1812 20.1875 12.0043 20.1875ZM16.0057 15.5937V10.3437C16.7132 10.3437 17.3918 10.6203 17.892 11.1126C18.3923 11.6049 18.6734 12.2726 18.6734 12.9687C18.6734 13.6649 18.3923 14.3326 17.892 14.8249C17.3918 15.3172 16.7132 15.5937 16.0057 15.5937Z" fill="#787575"/>
<path d="M9.33672 7.71875H8.66982L9.38007 7.19375C9.64067 7.00057 9.83302 6.73173 9.92997 6.42517C10.0269 6.11862 10.0236 5.78985 9.92039 5.48527C9.81722 5.18069 9.61943 4.9157 9.35495 4.7277C9.09048 4.53969 8.77267 4.43819 8.44641 4.4375H7.00256C6.82568 4.4375 6.65605 4.50664 6.53098 4.62971C6.40591 4.75278 6.33565 4.9197 6.33565 5.09375C6.33565 5.2678 6.40591 5.43472 6.53098 5.55779C6.65605 5.68086 6.82568 5.75 7.00256 5.75H8.44641C8.49273 5.75067 8.53771 5.76549 8.57509 5.79242C8.61248 5.81935 8.64044 5.85705 8.65509 5.9003C8.66974 5.94355 8.67037 5.99022 8.65687 6.03384C8.64338 6.07745 8.61644 6.11586 8.57979 6.14375L6.26896 7.85C6.15698 7.93264 6.07427 8.04786 6.03253 8.17933C5.9908 8.3108 5.99216 8.45186 6.03642 8.58252C6.08068 8.71319 6.16561 8.82684 6.27916 8.90738C6.39271 8.98791 6.52913 9.03125 6.6691 9.03125H9.33672C9.5136 9.03125 9.68323 8.96211 9.8083 8.83904C9.93337 8.71597 10.0036 8.54905 10.0036 8.375C10.0036 8.20095 9.93337 8.03403 9.8083 7.91096C9.68323 7.78789 9.5136 7.71875 9.33672 7.71875Z" fill="#999999"/>
<path d="M11.3373 4.4375C11.1604 4.4375 10.9908 4.50664 10.8657 4.62971C10.7407 4.75278 10.6704 4.9197 10.6704 5.09375V6.07812C10.6704 6.42622 10.8109 6.76006 11.0611 7.0062C11.3112 7.25234 11.6505 7.39062 12.0042 7.39062H12.6711V8.375C12.6711 8.54905 12.7414 8.71597 12.8665 8.83904C12.9915 8.96211 13.1612 9.03125 13.338 9.03125C13.5149 9.03125 13.6845 8.96211 13.8096 8.83904C13.9347 8.71597 14.0049 8.54905 14.0049 8.375V5.09375C14.0049 4.9197 13.9347 4.75278 13.8096 4.62971C13.6845 4.50664 13.5149 4.4375 13.338 4.4375C13.1612 4.4375 12.9915 4.50664 12.8665 4.62971C12.7414 4.75278 12.6711 4.9197 12.6711 5.09375V6.07812H12.0042V5.09375C12.0042 4.9197 11.934 4.75278 11.8089 4.62971C11.6838 4.50664 11.5142 4.4375 11.3373 4.4375Z" fill="#999999"/>
</svg>
