<svg width="17" height="17" viewBox="0 0 17 17" fill="none" xmlns="http://www.w3.org/2000/svg">
<path d="M8.5 16.8213C13.1944 16.8213 17 13.0557 17 8.41064C17 3.76557 13.1944 0 8.5 0C3.80558 0 0 3.76557 0 8.41064C0 13.0557 3.80558 16.8213 8.5 16.8213Z" fill="#00B956"/>
<path fill-rule="evenodd" clip-rule="evenodd" d="M11.2497 11.2203H6.03309C5.36391 11.2203 4.81641 10.6668 4.81641 9.99035V7.1235C4.81641 6.44703 5.36391 5.89355 6.03309 5.89355H11.2497C11.9189 5.89355 12.4664 6.44703 12.4664 7.1235V9.99035C12.4664 10.6668 11.9189 11.2203 11.2497 11.2203ZM7.94673 7.52678V9.80172L10.0297 8.62718L7.94673 7.52678Z" fill="white"/>
</svg>
