<svg width="44" height="44" viewBox="0 0 44 44" fill="none" xmlns="http://www.w3.org/2000/svg">
<path d="M22 44C34.1503 44 44 34.1503 44 22C44 9.84974 34.1503 0 22 0C9.84974 0 0 9.84974 0 22C0 34.1503 9.84974 44 22 44Z" fill="#787575"/>
<path opacity="0.2" d="M32.227 12.3252L7.94971 22.1994L17.0204 31.2723C16.8768 31.4593 16.7272 31.6557 16.5843 31.8416L27.8485 43.1059C32.1385 41.9016 35.9617 39.4231 38.8121 35.9984C41.6626 32.5736 43.4059 28.364 43.8114 23.9268L32.227 12.3252Z" fill="url(#paint0_linear_2693_9551)"/>
<path d="M14.1682 24.5085L16.1796 31.0617C16.1796 31.0617 16.3918 31.7028 16.5856 31.8542C16.7795 32.0056 16.9747 32.0209 16.9747 32.0209L30.397 14.7517L28.2087 14.0342L14.1682 24.5085Z" fill="#BED6E8"/>
<path d="M17.466 25.917L16.7881 31.8515C16.7881 31.8515 16.785 31.9932 16.9809 32.0268C17.1769 32.0604 17.3599 31.8511 17.3599 31.8511L21.1051 28.5594L17.466 25.917Z" fill="#9DBFD6"/>
<path d="M8.22608 20.9112C8.22608 20.9112 7.67297 21.19 7.70045 21.6728C7.72793 22.1556 8.22602 22.4148 8.22602 22.4148L14.1681 24.5079L27.8259 15.6984C27.8259 15.6984 28.09 15.583 28.2168 15.7369C28.3436 15.8907 28.1201 16.0954 28.1201 16.0954L17.4659 25.9166L26.5719 32.6894C26.5719 32.6894 27.0567 33.0412 27.592 32.9955C28.1273 32.9498 28.4179 32.2457 28.4179 32.2457L28.7563 31.0391L29.9256 26.2676L30.8722 21.9227L31.4132 19.2443L32.1482 14.9197L32.4251 13.2646C32.4251 13.2646 32.6181 12.5702 32.1289 12.2538C31.6396 11.9375 30.9542 12.2058 30.9542 12.2058L8.22608 20.9112Z" fill="#F1F7FC"/>
<defs>
<linearGradient id="paint0_linear_2693_9551" x1="16.5005" y1="16.4996" x2="44.0005" y2="43.9996" gradientUnits="userSpaceOnUse">
<stop stop-color="#292C2F"/>
<stop offset="1" stop-color="#292C2F" stop-opacity="0"/>
</linearGradient>
</defs>
</svg>
