<svg width="152" height="35" viewBox="0 0 152 35" fill="none" xmlns="http://www.w3.org/2000/svg">
<path d="M14.0132 31.1328C13.6418 31.1328 13.2743 31.1178 12.9118 31.0895V19.2795C12.9118 19.2339 12.9474 19.1997 12.9913 19.1997H14.5796C15.4142 19.1997 16.0927 18.5203 16.0927 17.6862V3.28208C22.8444 4.2871 28.0249 10.1038 28.0249 17.1305C28.0249 24.8635 21.7507 31.1328 14.0132 31.1328V31.1328ZM15.4057 21.3181C14.4598 21.3181 13.6937 22.0832 13.6937 23.0281C13.6937 23.9735 14.4598 24.7391 15.4057 24.7391C16.3513 24.7391 17.1181 23.9735 17.1181 23.0281C17.1181 22.0832 16.3513 21.3181 15.4057 21.3181ZM22.105 23.0281C22.105 23.9735 22.871 24.7391 23.817 24.7391C24.7628 24.7391 25.5276 23.9735 25.5276 23.0281C25.5276 22.0832 24.7628 21.3181 23.817 21.3181C22.871 21.3181 22.105 22.0832 22.105 23.0281ZM19.6111 21.3181C18.6665 21.3181 17.8995 22.0832 17.8995 23.0281C17.8995 23.9735 18.6665 24.7391 19.6111 24.7391C20.5571 24.7391 21.3231 23.9735 21.3231 23.0281C21.3231 22.0832 20.5571 21.3181 19.6111 21.3181ZM11.2003 11.2876C10.254 11.2876 9.48795 12.0545 9.48795 12.9985C9.48795 13.9443 10.254 14.709 11.2003 14.709C12.1453 14.709 12.9118 13.9443 12.9118 12.9985C12.9118 12.0545 12.1453 11.2876 11.2003 11.2876ZM13.6937 16.7335C13.6937 16.7768 13.6586 16.8121 13.6139 16.8121H12.0363C11.2028 16.8121 10.5244 17.4905 10.5244 18.3238L10.5228 30.6952C4.47419 29.1456 0 23.6594 0 17.1305C0 9.50431 6.10243 3.3019 13.6943 3.13281V16.7335H13.6937Z" fill="white"/>
<path d="M108.483 28.2901H104.473V29.0723H105.939V33.9298H106.901V29.0723H108.358L108.483 28.2901ZM116.805 33.4113H117.24V34.6895H116.547V33.9298H115.892V32.2837C115.787 32.3242 115.687 32.3566 115.593 32.3827C115.5 32.4071 115.406 32.4262 115.315 32.4371C115.221 32.4492 115.124 32.4544 115.021 32.4544C114.928 32.4562 114.822 32.4492 114.703 32.4331C114.585 32.4179 114.467 32.3867 114.346 32.3393C114.227 32.2929 114.116 32.2224 114.017 32.1286C113.924 32.0349 113.855 31.9385 113.811 31.8377C113.77 31.7361 113.742 31.6357 113.731 31.5363C113.72 31.4372 113.714 31.3448 113.715 31.2565V29.8793L114.627 29.7082V31.1588C114.626 31.2092 114.629 31.2622 114.634 31.3204C114.638 31.3791 114.653 31.4359 114.678 31.4942C114.702 31.5527 114.741 31.6057 114.796 31.6561C114.859 31.7074 114.934 31.743 115.016 31.7608C115.098 31.7795 115.179 31.7877 115.256 31.7865C115.348 31.7877 115.447 31.7808 115.551 31.7634C115.657 31.7456 115.771 31.7074 115.892 31.6478V29.8793L116.805 29.7082V33.4113H116.805ZM112.698 31.8758C112.698 31.5484 112.656 31.2527 112.573 30.9864C112.489 30.7201 112.367 30.4904 112.205 30.2989C112.043 30.1073 111.844 29.9592 111.61 29.8562C111.377 29.7529 111.108 29.7011 110.806 29.6999C110.525 29.7011 110.271 29.7516 110.045 29.8536C109.817 29.954 109.623 30.0995 109.461 30.288C109.298 30.4783 109.174 30.7067 109.087 30.9712C109.001 31.2378 108.958 31.5363 108.956 31.8677C108.958 32.3133 109.035 32.6963 109.186 33.0195C109.336 33.3431 109.551 33.5928 109.83 33.7695C110.108 33.9446 110.44 34.0332 110.823 34.0358C111.207 34.0346 111.539 33.9463 111.82 33.7723C112.098 33.5997 112.315 33.3526 112.467 33.0308C112.619 32.7084 112.697 32.3228 112.698 31.8758V31.8758ZM111.677 31.8841C111.677 32.2333 111.644 32.5169 111.58 32.7359C111.514 32.9544 111.419 33.1151 111.294 33.2167C111.166 33.3187 111.013 33.3687 110.832 33.3674C110.695 33.3687 110.575 33.3443 110.469 33.2941C110.363 33.2441 110.274 33.1585 110.201 33.0399C110.127 32.9217 110.072 32.7615 110.035 32.559C109.997 32.3566 109.978 32.1043 109.978 31.8024C109.978 31.4698 110.006 31.1966 110.064 30.9851C110.123 30.7731 110.212 30.6168 110.335 30.5178C110.458 30.417 110.614 30.3666 110.806 30.3683C110.94 30.3666 111.062 30.3914 111.169 30.4417C111.275 30.4904 111.368 30.5733 111.443 30.6888C111.518 30.8043 111.577 30.9608 111.617 31.1561C111.656 31.3517 111.677 31.5936 111.677 31.8841V31.8841ZM118.324 33.9298H119.279L120.442 31.9002C120.489 31.8204 120.536 31.7309 120.586 31.6317C120.637 31.5311 120.687 31.4264 120.737 31.3164C120.786 31.2066 120.83 31.0976 120.869 30.9878H120.886C120.875 31.114 120.866 31.2335 120.861 31.346C120.853 31.4589 120.85 31.5718 120.848 31.6857C120.845 31.7998 120.844 31.9236 120.844 32.0553V33.9298H121.756V29.6999L120.802 29.8628L119.672 31.8273C119.6 31.9492 119.525 32.0905 119.448 32.2494C119.372 32.4097 119.295 32.5891 119.219 32.7889H119.203C119.209 32.6951 119.214 32.596 119.219 32.4901C119.224 32.3841 119.227 32.2768 119.23 32.1696C119.234 32.0623 119.235 31.9589 119.235 31.8599V29.6999L118.323 29.8711V33.9298H118.324ZM123.276 33.9298H124.188V32.1043H124.565C124.633 32.1014 124.702 32.1069 124.773 32.1178C124.844 32.1286 124.911 32.1599 124.975 32.2103C125.028 32.2564 125.07 32.3163 125.099 32.3897C125.129 32.4631 125.152 32.5387 125.168 32.6177L125.302 33.1963C125.313 33.2493 125.327 33.3066 125.346 33.3701C125.366 33.4338 125.392 33.4982 125.427 33.5628C125.461 33.6272 125.505 33.6866 125.561 33.7422C125.634 33.8087 125.715 33.8578 125.801 33.8904C125.888 33.9229 125.98 33.9446 126.075 33.9586C126.17 33.9707 126.267 33.9802 126.365 33.9868L126.65 34.0111L126.817 33.3999L126.65 33.3674C126.615 33.3609 126.57 33.3483 126.518 33.331C126.465 33.3131 126.418 33.2844 126.374 33.2453C126.355 33.2302 126.333 33.202 126.303 33.1585C126.274 33.1163 126.245 33.0524 126.214 32.9683L126.005 32.3566C125.98 32.278 125.947 32.1994 125.905 32.1218C125.863 32.0431 125.813 31.9754 125.754 31.9167C125.72 31.8867 125.678 31.8568 125.627 31.8256C125.577 31.796 125.515 31.7712 125.444 31.7539V31.7373C125.508 31.7226 125.564 31.7035 125.611 31.6805C125.657 31.6575 125.695 31.634 125.723 31.6127C125.752 31.5905 125.77 31.5758 125.779 31.5662C125.825 31.5202 125.867 31.466 125.903 31.4004C125.938 31.3356 125.967 31.2662 125.988 31.1914L126.122 30.7515C126.138 30.7011 126.157 30.6524 126.179 30.6033C126.2 30.5546 126.233 30.5122 126.273 30.4743C126.311 30.443 126.35 30.4201 126.39 30.4066C126.431 30.394 126.47 30.3831 126.507 30.3765L126.716 30.3358L126.549 29.7243L126.239 29.7568C126.136 29.7667 126.044 29.7802 125.963 29.7951C125.882 29.8102 125.808 29.8332 125.743 29.8628C125.677 29.8941 125.617 29.9379 125.561 29.9935C125.489 30.0709 125.436 30.1495 125.405 30.2298C125.373 30.3097 125.351 30.3888 125.335 30.466L125.226 30.9308C125.205 31.0242 125.181 31.1019 125.151 31.1658C125.122 31.2279 125.088 31.2769 125.051 31.3135C124.985 31.3694 124.911 31.4033 124.826 31.4182C124.741 31.4316 124.66 31.4385 124.582 31.4359H124.188V29.7082L123.276 29.8793V33.9298ZM127.876 33.9298H128.83L129.994 31.9002C130.04 31.8204 130.087 31.7309 130.137 31.6317C130.189 31.5311 130.239 31.4264 130.288 31.3164C130.337 31.2066 130.382 31.0976 130.421 30.9878H130.437C130.426 31.114 130.418 31.2335 130.412 31.346C130.405 31.4589 130.401 31.5718 130.4 31.6857C130.397 31.7998 130.397 31.9236 130.397 32.0553V33.9298H131.309V29.6999L130.355 29.8628L129.225 31.8273C129.153 31.9492 129.078 32.0905 129.001 32.2494C128.924 32.4097 128.848 32.5891 128.772 32.7889H128.756C128.76 32.6951 128.767 32.596 128.772 32.4901C128.777 32.3841 128.78 32.2768 128.783 32.1696C128.788 32.0623 128.788 31.9589 128.788 31.8599V29.6999L127.875 29.8711V33.9298H127.876ZM135.774 33.4899L135.339 32.9439C135.201 33.0782 135.06 33.1798 134.918 33.2479C134.775 33.317 134.631 33.3514 134.485 33.3514C134.371 33.3514 134.266 33.3296 134.17 33.2888C134.073 33.2467 133.993 33.1897 133.924 33.1151C133.828 33.0143 133.757 32.8718 133.709 32.6868C133.663 32.5022 133.64 32.2698 133.64 31.9901C133.64 31.7335 133.652 31.5093 133.68 31.3178C133.708 31.1263 133.753 30.9672 133.815 30.8408C133.884 30.7049 133.976 30.6033 134.09 30.5325C134.206 30.4608 134.337 30.4253 134.485 30.4253C134.605 30.4239 134.722 30.4499 134.838 30.5013C134.952 30.5529 135.072 30.6333 135.197 30.7432L135.657 30.1481C135.533 30.0356 135.41 29.9457 135.289 29.8793C135.166 29.8141 135.04 29.7676 134.909 29.7407C134.78 29.712 134.637 29.6985 134.485 29.6999C134.295 29.6999 134.109 29.7286 133.927 29.7868C133.747 29.8441 133.577 29.9322 133.419 30.0477C133.261 30.1646 133.123 30.311 133.003 30.489C132.883 30.6658 132.79 30.8722 132.722 31.1097C132.655 31.3478 132.62 31.6166 132.618 31.9167C132.62 32.3611 132.689 32.7415 132.827 33.0564C132.967 33.3713 133.171 33.6132 133.438 33.7818C133.705 33.9489 134.032 34.0346 134.418 34.0358C134.606 34.0358 134.78 34.0167 134.937 33.9776C135.095 33.9377 135.241 33.8781 135.378 33.7983C135.515 33.7166 135.647 33.6149 135.774 33.4899V33.4899ZM138.298 30.4743H139.395L139.512 29.8059H136.247V30.4743H137.386V33.9298H138.298V30.4743ZM143.853 31.8758C143.853 31.5484 143.811 31.2527 143.727 30.9864C143.643 30.7201 143.521 30.4904 143.359 30.2989C143.197 30.1073 142.999 29.9592 142.764 29.8562C142.532 29.7529 142.262 29.7011 141.961 29.6999C141.679 29.7011 141.425 29.7516 141.199 29.8536C140.972 29.954 140.777 30.0995 140.616 30.288C140.453 30.4783 140.328 30.7067 140.242 30.9712C140.155 31.2378 140.112 31.5363 140.111 31.8677C140.112 32.3133 140.189 32.6963 140.34 33.0195C140.491 33.3431 140.705 33.5928 140.984 33.7695C141.262 33.9446 141.594 34.0332 141.978 34.0358C142.361 34.0346 142.693 33.9463 142.974 33.7723C143.253 33.5997 143.469 33.3526 143.621 33.0308C143.773 32.7084 143.851 32.3228 143.853 31.8758V31.8758ZM142.832 31.8841C142.832 32.2333 142.798 32.5169 142.734 32.7359C142.668 32.9544 142.573 33.1151 142.448 33.2167C142.321 33.3187 142.168 33.3687 141.986 33.3674C141.85 33.3687 141.729 33.3443 141.623 33.2941C141.517 33.2441 141.428 33.1585 141.355 33.0399C141.282 32.9217 141.227 32.7615 141.189 32.559C141.152 32.3566 141.132 32.1043 141.132 31.8024C141.132 31.4698 141.16 31.1966 141.219 30.9851C141.277 30.7731 141.366 30.6168 141.489 30.5178C141.612 30.417 141.768 30.3666 141.961 30.3683C142.095 30.3666 142.216 30.3914 142.324 30.4417C142.43 30.4904 142.522 30.5733 142.597 30.6888C142.673 30.8043 142.731 30.9608 142.772 31.1561C142.81 31.3517 142.832 31.5936 142.832 31.8841V31.8841ZM146.033 32.0713H147.465V33.9298H148.378V29.7082L147.465 29.8793V31.4033H146.033V29.7082L145.121 29.8793V33.9298H146.033V32.0713Z" fill="white"/>
<path fill-rule="evenodd" clip-rule="evenodd" d="M148.378 23.3428V10.4662H145.307V15.3425H138.674V10.4662H135.602V23.3428H138.674V18.1386H145.307V23.3428H148.378ZM68.6541 23.3428V20.6248H60.7183C60.5019 20.6248 60.4662 20.5136 60.4662 20.3194V18.0462H68.4681V15.4232H60.4662V13.5314C60.4662 13.3411 60.5019 13.1851 60.7183 13.1851H68.6541V10.4662H59.2522C58.1285 10.4662 57.3946 11.2358 57.3946 12.5554V21.255C57.3946 22.5763 58.1285 23.3428 59.2522 23.3428H68.6541ZM75.005 13.1851C74.7886 13.1851 74.7533 13.3411 74.7533 13.5314V23.3428H71.6811V12.5554C71.6811 11.2358 72.4128 10.4662 73.534 10.4662H82.9427V13.1851H75.005ZM93.0468 23.3428H96.4164L91.2354 11.9026C90.7058 10.7334 89.834 10.1591 88.6313 10.1591C87.4285 10.1591 86.5572 10.7334 86.0281 11.9026L80.8466 23.3428H84.2162L85.3482 20.6248H91.9149L93.0468 23.3428ZM86.422 18.0462L88.3672 13.3737C88.4577 13.1604 88.5386 13.1214 88.6313 13.1214C88.7241 13.1214 88.8053 13.1604 88.8954 13.3737L90.8405 18.0462H86.422ZM107.796 11.1529H109.154C112.06 11.1529 112.819 12.3638 112.819 15.0631C112.819 17.7629 112.06 18.9743 109.154 18.9743H107.796V11.1529ZM107.796 23.3428V21.6928H109.174C113.961 21.6928 115.907 19.4973 115.907 15.0575C115.907 10.5462 114.005 8.44134 109.202 8.44134H103.224C98.4217 8.44134 96.5195 10.5462 96.5195 15.0575C96.5195 19.4973 98.465 21.6928 103.252 21.6928H104.631V23.3428H107.796ZM104.631 18.9743H103.273C100.367 18.9743 99.6067 17.7629 99.6067 15.0631C99.6067 12.3638 100.367 11.1529 103.273 11.1529H104.631V18.9743ZM48.254 10.5601C48.9585 8.9387 49.9066 8.13305 51.3904 8.13305C53.1411 8.13305 54.214 9.14585 54.214 11.3461V23.3428H51.0483V11.6728L46.7867 21.5213C46.2273 22.8634 45.4314 23.5869 44.122 23.5869C42.8125 23.5869 42.0166 22.8634 41.4572 21.5213L37.1952 11.6728V23.3428H34.0303V11.3461C34.0303 9.14585 35.1029 8.13305 36.8535 8.13305C38.3378 8.13305 39.2858 8.9387 39.9897 10.5601L44.122 20.2548L48.254 10.5601ZM126.345 10.2708H125.236C120.433 10.2708 118.531 12.3759 118.531 16.8874C118.531 21.3272 120.477 23.5223 125.265 23.5223H126.317C131.104 23.5223 133.051 21.3272 133.051 16.8874C133.051 12.3759 131.148 10.2708 126.345 10.2708ZM129.963 16.8931C129.963 19.5924 129.203 20.8038 126.297 20.8038H125.285C122.378 20.8038 121.619 19.5924 121.619 16.8931C121.619 14.1936 122.378 12.9824 125.285 12.9824H126.297C129.203 12.9824 129.963 14.1936 129.963 16.8931Z" fill="white"/>
</svg>
