<svg width="44" height="44" viewBox="0 0 44 44" fill="none" xmlns="http://www.w3.org/2000/svg">
<path d="M22.0012 44C21.4181 44 20.8411 43.9765 20.2719 43.932V25.3733C20.2719 25.3017 20.3278 25.248 20.3968 25.248H22.8904C24.2008 25.248 25.266 24.1803 25.266 22.8696V0.234558C35.8664 1.81388 44 10.9544 44 21.9963C44 34.1482 34.1493 44 22.0012 44ZM24.1875 28.5769C22.7023 28.5769 21.4996 29.7792 21.4996 31.2641C21.4996 32.7497 22.7023 33.9527 24.1875 33.9527C25.672 33.9527 26.8759 32.7497 26.8759 31.2641C26.8759 29.7792 25.672 28.5769 24.1875 28.5769ZM34.7055 31.2641C34.7055 32.7497 35.9082 33.9527 37.3934 33.9527C38.8784 33.9527 40.0792 32.7497 40.0792 31.2641C40.0792 29.7792 38.8784 28.5769 37.3934 28.5769C35.9082 28.5769 34.7055 29.7792 34.7055 31.2641ZM30.79 28.5769C29.3069 28.5769 28.1028 29.7792 28.1028 31.2641C28.1028 32.7497 29.3069 33.9527 30.79 33.9527C32.2752 33.9527 33.4779 32.7497 33.4779 31.2641C33.4779 29.7792 32.2752 28.5769 30.79 28.5769ZM17.5848 12.8147C16.0991 12.8147 14.8964 14.0198 14.8964 15.5032C14.8964 16.9895 16.0991 18.1911 17.5848 18.1911C19.0686 18.1911 20.2719 16.9895 20.2719 15.5032C20.2719 14.0198 19.0686 12.8147 17.5848 12.8147ZM21.4996 21.3726C21.4996 21.4406 21.4444 21.496 21.3743 21.496H18.8973C17.5888 21.496 16.5236 22.562 16.5236 23.8716L16.5212 43.3123C7.02462 40.8773 0 32.2561 0 21.9963C0 10.0124 9.58101 0.265717 21.5006 0V21.3726H21.4996Z" fill="#00B956"/>
</svg>
